<svg width="194" height="54" viewBox="0 0 194 54" fill="none" xmlns="http://www.w3.org/2000/svg">
<g filter="url(#filter0_ddiii_203_10)">
<g clip-path="url(#clip0_203_10)">
<rect x="3" width="48" height="48" rx="12" fill="#6938EF"/>
<rect width="48" height="48" transform="translate(3)" fill="url(#paint0_linear_203_10)"/>
<g filter="url(#filter1_d_203_10)">
<path d="M15.7776 17.5975C16.3405 15.4968 18.4998 13.3376 20.6004 12.7746L33.6967 9.26496C35.7974 8.70202 37.0439 9.94856 36.481 12.0492L32.9713 25.1455C32.4083 27.2461 30.2491 29.4054 28.1484 29.9683L15.0521 33.478C12.9515 34.041 11.7049 32.7944 12.2679 30.6938L15.7776 17.5975Z" fill="url(#paint1_linear_203_10)"/>
<path d="M21.0276 22.8485C21.5905 20.7478 23.7498 18.5886 25.8504 18.0256L38.9467 14.5159C41.0473 13.953 42.2939 15.1995 41.7309 17.3002L38.2213 30.3965C37.6583 32.4971 35.4991 34.6564 33.3984 35.2193L20.3021 38.729C18.2015 39.2919 16.9549 38.0454 17.5179 35.9448L21.0276 22.8485Z" fill="url(#paint2_linear_203_10)"/>
</g>
</g>
<rect x="4" y="1" width="46" height="46" rx="11" stroke="url(#paint3_linear_203_10)" stroke-width="2"/>
</g>
<path d="M61.4 38V33.44L76.36 13.56L78.68 16.24H62.44V10H83.56V14.52L68.72 34.44L66.32 32H84V38H61.4ZM100.269 38V24.96C100.269 23.8667 99.9627 23.0667 99.3494 22.56C98.7627 22.0267 97.936 21.76 96.8694 21.76C95.8294 21.76 94.896 21.96 94.0694 22.36C93.2694 22.7333 92.496 23.36 91.7494 24.24L87.9094 20.52C89.1894 19.2133 90.656 18.1867 92.3094 17.44C93.9627 16.6933 95.7627 16.32 97.7094 16.32C99.496 16.32 101.043 16.5867 102.349 17.12C103.656 17.6533 104.669 18.4667 105.389 19.56C106.109 20.6533 106.469 22.04 106.469 23.72V38H100.269ZM94.7494 38.4C93.416 38.4 92.2027 38.1333 91.1094 37.6C90.0427 37.0667 89.1894 36.3333 88.5494 35.4C87.936 34.44 87.6294 33.32 87.6294 32.04C87.6294 30.9467 87.8294 29.9867 88.2294 29.16C88.6294 28.3333 89.216 27.6533 89.9894 27.12C90.7894 26.56 91.776 26.1467 92.9494 25.88C94.1494 25.5867 95.536 25.44 97.1094 25.44H103.549L103.189 29.48H97.2694C96.7094 29.48 96.216 29.5333 95.7894 29.64C95.3627 29.72 95.0027 29.8667 94.7094 30.08C94.416 30.2667 94.1894 30.4933 94.0294 30.76C93.896 31.0267 93.8294 31.3467 93.8294 31.72C93.8294 32.12 93.936 32.4667 94.1494 32.76C94.3627 33.0533 94.6427 33.28 94.9894 33.44C95.3627 33.6 95.7894 33.68 96.2694 33.68C96.9627 33.68 97.616 33.5733 98.2294 33.36C98.8694 33.12 99.4294 32.7867 99.9094 32.36C100.416 31.9333 100.816 31.44 101.109 30.88L102.229 33.76C101.669 34.6667 100.989 35.4667 100.189 36.16C99.416 36.8533 98.5627 37.4 97.6294 37.8C96.7227 38.2 95.7627 38.4 94.7494 38.4ZM111.606 46.8V16.76H117.726L118.006 21.44L116.766 21.08C116.926 20.2267 117.366 19.4533 118.086 18.76C118.832 18.04 119.752 17.4667 120.846 17.04C121.939 16.5867 123.099 16.36 124.326 16.36C126.139 16.36 127.752 16.8267 129.166 17.76C130.579 18.6933 131.686 20 132.486 21.68C133.312 23.3333 133.726 25.24 133.726 27.4C133.726 29.5067 133.312 31.3867 132.486 33.04C131.686 34.6933 130.566 36 129.126 36.96C127.712 37.8933 126.099 38.36 124.286 38.36C123.059 38.36 121.899 38.1333 120.806 37.68C119.712 37.2 118.792 36.5867 118.046 35.84C117.299 35.0933 116.819 34.28 116.606 33.4L118.086 32.8V46.8H111.606ZM122.726 32.92C123.686 32.92 124.512 32.6933 125.206 32.24C125.926 31.7867 126.472 31.1467 126.846 30.32C127.246 29.4667 127.446 28.4933 127.446 27.4C127.446 26.28 127.246 25.3067 126.846 24.48C126.472 23.6267 125.926 22.9733 125.206 22.52C124.512 22.04 123.686 21.8 122.726 21.8C121.739 21.8 120.886 22.04 120.166 22.52C119.446 22.9733 118.886 23.6133 118.486 24.44C118.086 25.2667 117.886 26.2533 117.886 27.4C117.886 28.4933 118.086 29.4667 118.486 30.32C118.886 31.1467 119.446 31.7867 120.166 32.24C120.886 32.6933 121.739 32.92 122.726 32.92ZM137.934 46.8V16.76H144.054L144.334 21.44L143.094 21.08C143.254 20.2267 143.694 19.4533 144.414 18.76C145.16 18.04 146.08 17.4667 147.174 17.04C148.267 16.5867 149.427 16.36 150.654 16.36C152.467 16.36 154.08 16.8267 155.494 17.76C156.907 18.6933 158.014 20 158.814 21.68C159.64 23.3333 160.054 25.24 160.054 27.4C160.054 29.5067 159.64 31.3867 158.814 33.04C158.014 34.6933 156.894 36 155.454 36.96C154.04 37.8933 152.427 38.36 150.614 38.36C149.387 38.36 148.227 38.1333 147.134 37.68C146.04 37.2 145.12 36.5867 144.374 35.84C143.627 35.0933 143.147 34.28 142.934 33.4L144.414 32.8V46.8H137.934ZM149.054 32.92C150.014 32.92 150.84 32.6933 151.534 32.24C152.254 31.7867 152.8 31.1467 153.174 30.32C153.574 29.4667 153.774 28.4933 153.774 27.4C153.774 26.28 153.574 25.3067 153.174 24.48C152.8 23.6267 152.254 22.9733 151.534 22.52C150.84 22.04 150.014 21.8 149.054 21.8C148.067 21.8 147.214 22.04 146.494 22.52C145.774 22.9733 145.214 23.6133 144.814 24.44C144.414 25.2667 144.214 26.2533 144.214 27.4C144.214 28.4933 144.414 29.4667 144.814 30.32C145.214 31.1467 145.774 31.7867 146.494 32.24C147.214 32.6933 148.067 32.92 149.054 32.92ZM172.342 38.4C170.529 38.4 168.889 37.9333 167.422 37C165.982 36.0667 164.849 34.7733 164.022 33.12C163.195 31.44 162.782 29.5333 162.782 27.4C162.782 25.2667 163.195 23.3733 164.022 21.72C164.849 20.04 165.982 18.72 167.422 17.76C168.889 16.8 170.542 16.32 172.382 16.32C173.342 16.32 174.262 16.4667 175.142 16.76C176.049 17.0533 176.849 17.4533 177.542 17.96C178.262 18.4667 178.849 19.04 179.302 19.68C179.755 20.32 180.035 21 180.142 21.72L178.582 22.08V8.4H185.022V38H179.022L178.662 33.2L179.942 33.44C179.889 34.08 179.649 34.7067 179.222 35.32C178.795 35.9067 178.222 36.44 177.502 36.92C176.809 37.3733 176.022 37.7333 175.142 38C174.262 38.2667 173.329 38.4 172.342 38.4ZM173.942 33.08C174.929 33.08 175.769 32.8533 176.462 32.4C177.182 31.92 177.742 31.2533 178.142 30.4C178.542 29.5467 178.742 28.5467 178.742 27.4C178.742 26.2267 178.542 25.2133 178.142 24.36C177.742 23.5067 177.182 22.8533 176.462 22.4C175.769 21.92 174.929 21.68 173.942 21.68C172.982 21.68 172.142 21.92 171.422 22.4C170.729 22.8533 170.182 23.5067 169.782 24.36C169.382 25.2133 169.182 26.2267 169.182 27.4C169.182 28.5467 169.382 29.5467 169.782 30.4C170.182 31.2533 170.729 31.92 171.422 32.4C172.142 32.8533 172.982 33.08 173.942 33.08Z" fill="black"/>
<defs>
<filter id="filter0_ddiii_203_10" x="0" y="-3" width="54" height="57" filterUnits="userSpaceOnUse" color-interpolation-filters="sRGB">
<feFlood flood-opacity="0" result="BackgroundImageFix"/>
<feColorMatrix in="SourceAlpha" type="matrix" values="0 0 0 0 0 0 0 0 0 0 0 0 0 0 0 0 0 0 127 0" result="hardAlpha"/>
<feOffset dy="1"/>
<feGaussianBlur stdDeviation="0.5"/>
<feComposite in2="hardAlpha" operator="out"/>
<feColorMatrix type="matrix" values="0 0 0 0 0.162923 0 0 0 0 0.162923 0 0 0 0 0.162923 0 0 0 0.08 0"/>
<feBlend mode="normal" in2="BackgroundImageFix" result="effect1_dropShadow_203_10"/>
<feColorMatrix in="SourceAlpha" type="matrix" values="0 0 0 0 0 0 0 0 0 0 0 0 0 0 0 0 0 0 127 0" result="hardAlpha"/>
<feMorphology radius="1" operator="erode" in="SourceAlpha" result="effect2_dropShadow_203_10"/>
<feOffset dy="3"/>
<feGaussianBlur stdDeviation="2"/>
<feComposite in2="hardAlpha" operator="out"/>
<feColorMatrix type="matrix" values="0 0 0 0 0.164706 0 0 0 0 0.164706 0 0 0 0 0.164706 0 0 0 0.14 0"/>
<feBlend mode="normal" in2="effect1_dropShadow_203_10" result="effect2_dropShadow_203_10"/>
<feBlend mode="normal" in="SourceGraphic" in2="effect2_dropShadow_203_10" result="shape"/>
<feColorMatrix in="SourceAlpha" type="matrix" values="0 0 0 0 0 0 0 0 0 0 0 0 0 0 0 0 0 0 127 0" result="hardAlpha"/>
<feOffset dy="-3"/>
<feGaussianBlur stdDeviation="1.5"/>
<feComposite in2="hardAlpha" operator="arithmetic" k2="-1" k3="1"/>
<feColorMatrix type="matrix" values="0 0 0 0 0 0 0 0 0 0 0 0 0 0 0 0 0 0 0.1 0"/>
<feBlend mode="normal" in2="shape" result="effect3_innerShadow_203_10"/>
<feColorMatrix in="SourceAlpha" type="matrix" values="0 0 0 0 0 0 0 0 0 0 0 0 0 0 0 0 0 0 127 0" result="hardAlpha"/>
<feOffset dy="3"/>
<feGaussianBlur stdDeviation="1.5"/>
<feComposite in2="hardAlpha" operator="arithmetic" k2="-1" k3="1"/>
<feColorMatrix type="matrix" values="0 0 0 0 1 0 0 0 0 1 0 0 0 0 1 0 0 0 0.1 0"/>
<feBlend mode="normal" in2="effect3_innerShadow_203_10" result="effect4_innerShadow_203_10"/>
<feColorMatrix in="SourceAlpha" type="matrix" values="0 0 0 0 0 0 0 0 0 0 0 0 0 0 0 0 0 0 127 0" result="hardAlpha"/>
<feMorphology radius="1" operator="erode" in="SourceAlpha" result="effect5_innerShadow_203_10"/>
<feOffset/>
<feComposite in2="hardAlpha" operator="arithmetic" k2="-1" k3="1"/>
<feColorMatrix type="matrix" values="0 0 0 0 0 0 0 0 0 0 0 0 0 0 0 0 0 0 0.2 0"/>
<feBlend mode="normal" in2="effect4_innerShadow_203_10" result="effect5_innerShadow_203_10"/>
</filter>
<filter id="filter1_d_203_10" x="9" y="5.25" width="36" height="42" filterUnits="userSpaceOnUse" color-interpolation-filters="sRGB">
<feFlood flood-opacity="0" result="BackgroundImageFix"/>
<feColorMatrix in="SourceAlpha" type="matrix" values="0 0 0 0 0 0 0 0 0 0 0 0 0 0 0 0 0 0 127 0" result="hardAlpha"/>
<feMorphology radius="1.5" operator="erode" in="SourceAlpha" result="effect1_dropShadow_203_10"/>
<feOffset dy="2.25"/>
<feGaussianBlur stdDeviation="2.25"/>
<feComposite in2="hardAlpha" operator="out"/>
<feColorMatrix type="matrix" values="0 0 0 0 0.141176 0 0 0 0 0.141176 0 0 0 0 0.141176 0 0 0 0.1 0"/>
<feBlend mode="normal" in2="BackgroundImageFix" result="effect1_dropShadow_203_10"/>
<feBlend mode="normal" in="SourceGraphic" in2="effect1_dropShadow_203_10" result="shape"/>
</filter>
<linearGradient id="paint0_linear_203_10" x1="24" y1="5.96047e-07" x2="26" y2="48" gradientUnits="userSpaceOnUse">
<stop stop-color="white" stop-opacity="0"/>
<stop offset="1" stop-color="white" stop-opacity="0.12"/>
</linearGradient>
<linearGradient id="paint1_linear_203_10" x1="27.1486" y1="11.0198" x2="31.9533" y2="28.9487" gradientUnits="userSpaceOnUse">
<stop stop-color="white" stop-opacity="0.8"/>
<stop offset="1" stop-color="white" stop-opacity="0.5"/>
</linearGradient>
<linearGradient id="paint2_linear_203_10" x1="32.3986" y1="16.2708" x2="37.2033" y2="34.1996" gradientUnits="userSpaceOnUse">
<stop stop-color="white" stop-opacity="0.8"/>
<stop offset="1" stop-color="white" stop-opacity="0.5"/>
</linearGradient>
<linearGradient id="paint3_linear_203_10" x1="27" y1="0" x2="27" y2="48" gradientUnits="userSpaceOnUse">
<stop stop-color="white" stop-opacity="0.12"/>
<stop offset="1" stop-color="white" stop-opacity="0"/>
</linearGradient>
<clipPath id="clip0_203_10">
<rect x="3" width="48" height="48" rx="12" fill="white"/>
</clipPath>
</defs>
</svg>
