<svg width="163" height="54" viewBox="0 0 163 54" fill="none" xmlns="http://www.w3.org/2000/svg">
<g filter="url(#filter0_ddiii_203_10)">
<g clip-path="url(#clip0_203_10)">
<rect x="3" width="48" height="48" rx="12" fill="#6938EF"/>
<rect width="48" height="48" transform="translate(3)" fill="url(#paint0_linear_203_10)"/>
<g filter="url(#filter1_d_203_10)">
<path d="M15.7776 17.5975C16.3405 15.4968 18.4998 13.3376 20.6004 12.7746L33.6967 9.26496C35.7974 8.70202 37.0439 9.94856 36.481 12.0492L32.9713 25.1455C32.4083 27.2461 30.2491 29.4054 28.1484 29.9683L15.0521 33.478C12.9515 34.041 11.7049 32.7944 12.2679 30.6938L15.7776 17.5975Z" fill="url(#paint1_linear_203_10)"/>
<path d="M21.0276 22.8485C21.5905 20.7478 23.7498 18.5886 25.8504 18.0256L38.9467 14.5159C41.0473 13.953 42.2939 15.1995 41.7309 17.3002L38.2213 30.3965C37.6583 32.4971 35.4991 34.6564 33.3984 35.2193L20.3021 38.729C18.2015 39.2919 16.9549 38.0454 17.5179 35.9448L21.0276 22.8485Z" fill="url(#paint2_linear_203_10)"/>
</g>
</g>
<rect x="4" y="1" width="46" height="46" rx="11" stroke="url(#paint3_linear_203_10)" stroke-width="2"/>
</g>
<path d="M61.4 38V33.44L76.36 13.56L78.68 16.24H62.44V10H83.56V14.52L68.72 34.44L66.32 32H84V38H61.4ZM100.269 38V24.96C100.269 23.8667 99.9627 23.0667 99.3494 22.56C98.7627 22.0267 97.936 21.76 96.8694 21.76C95.8294 21.76 94.896 21.96 94.0694 22.36C93.2694 22.7333 92.496 23.36 91.7494 24.24L87.9094 20.52C89.1894 19.2133 90.656 18.1867 92.3094 17.44C93.9627 16.6933 95.7627 16.32 97.7094 16.32C99.496 16.32 101.043 16.5867 102.349 17.12C103.656 17.6533 104.669 18.4667 105.389 19.56C106.109 20.6533 106.469 22.04 106.469 23.72V38H100.269ZM94.7494 38.4C93.416 38.4 92.2027 38.1333 91.1094 37.6C90.0427 37.0667 89.1894 36.3333 88.5494 35.4C87.936 34.44 87.6294 33.32 87.6294 32.04C87.6294 30.9467 87.8294 29.9867 88.2294 29.16C88.6294 28.3333 89.216 27.6533 89.9894 27.12C90.7894 26.56 91.776 26.1467 92.9494 25.88C94.1494 25.5867 95.536 25.44 97.1094 25.44H103.549L103.189 29.48H97.2694C96.7094 29.48 96.216 29.5333 95.7894 29.64C95.3627 29.72 95.0027 29.8667 94.7094 30.08C94.416 30.2667 94.1894 30.4933 94.0294 30.76C93.896 31.0267 93.8294 31.3467 93.8294 31.72C93.8294 32.12 93.936 32.4667 94.1494 32.76C94.3627 33.0533 94.6427 33.28 94.9894 33.44C95.3627 33.6 95.7894 33.68 96.2694 33.68C96.9627 33.68 97.616 33.5733 98.2294 33.36C98.8694 33.12 99.4294 32.7867 99.9094 32.36C100.416 31.9333 100.816 31.44 101.109 30.88L102.229 33.76C101.669 34.6667 100.989 35.4667 100.189 36.16C99.416 36.8533 98.5627 37.4 97.6294 37.8C96.7227 38.2 95.7627 38.4 94.7494 38.4ZM111.606 46.8V16.76H117.726L118.006 21.44L116.766 21.08C116.926 20.2267 117.366 19.4533 118.086 18.76C118.832 18.04 119.752 17.4667 120.846 17.04C121.939 16.5867 123.099 16.36 124.326 16.36C126.139 16.36 127.752 16.8267 129.166 17.76C130.579 18.6933 131.686 20 132.486 21.68C133.312 23.3333 133.726 25.24 133.726 27.4C133.726 29.5067 133.312 31.3867 132.486 33.04C131.686 34.6933 130.566 36 129.126 36.96C127.712 37.8933 126.099 38.36 124.286 38.36C123.059 38.36 121.899 38.1333 120.806 37.68C119.712 37.2 118.792 36.5867 118.046 35.84C117.299 35.0933 116.819 34.28 116.606 33.4L118.086 32.8V46.8H111.606ZM122.726 32.92C123.686 32.92 124.512 32.6933 125.206 32.24C125.926 31.7867 126.472 31.1467 126.846 30.32C127.246 29.4667 127.446 28.4933 127.446 27.4C127.446 26.28 127.246 25.3067 126.846 24.48C126.472 23.6267 125.926 22.9733 125.206 22.52C124.512 22.04 123.686 21.8 122.726 21.8C121.739 21.8 120.886 22.04 120.166 22.52C119.446 22.9733 118.886 23.6133 118.486 24.44C118.086 25.2667 117.886 26.2533 117.886 27.4C117.886 28.4933 118.086 29.4667 118.486 30.32C118.886 31.1467 119.446 31.7867 120.166 32.24C120.886 32.6933 121.739 32.92 122.726 32.92ZM146.014 38.4C144.2 38.4 142.56 37.9333 141.094 37C139.654 36.0667 138.52 34.7733 137.694 33.12C136.867 31.44 136.454 29.5333 136.454 27.4C136.454 25.2667 136.867 23.3733 137.694 21.72C138.52 20.04 139.654 18.72 141.094 17.76C142.56 16.8 144.214 16.32 146.054 16.32C147.014 16.32 147.934 16.4667 148.814 16.76C149.72 17.0533 150.52 17.4533 151.214 17.96C151.934 18.4667 152.52 19.04 152.974 19.68C153.427 20.32 153.707 21 153.814 21.72L152.254 22.08V8.4H158.694V38H152.694L152.334 33.2L153.614 33.44C153.56 34.08 153.32 34.7067 152.894 35.32C152.467 35.9067 151.894 36.44 151.174 36.92C150.48 37.3733 149.694 37.7333 148.814 38C147.934 38.2667 147 38.4 146.014 38.4ZM147.614 33.08C148.6 33.08 149.44 32.8533 150.134 32.4C150.854 31.92 151.414 31.2533 151.814 30.4C152.214 29.5467 152.414 28.5467 152.414 27.4C152.414 26.2267 152.214 25.2133 151.814 24.36C151.414 23.5067 150.854 22.8533 150.134 22.4C149.44 21.92 148.6 21.68 147.614 21.68C146.654 21.68 145.814 21.92 145.094 22.4C144.4 22.8533 143.854 23.5067 143.454 24.36C143.054 25.2133 142.854 26.2267 142.854 27.4C142.854 28.5467 143.054 29.5467 143.454 30.4C143.854 31.2533 144.4 31.92 145.094 32.4C145.814 32.8533 146.654 33.08 147.614 33.08Z" fill="black"/>
<defs>
<filter id="filter0_ddiii_203_10" x="0" y="-3" width="54" height="57" filterUnits="userSpaceOnUse" color-interpolation-filters="sRGB">
<feFlood flood-opacity="0" result="BackgroundImageFix"/>
<feColorMatrix in="SourceAlpha" type="matrix" values="0 0 0 0 0 0 0 0 0 0 0 0 0 0 0 0 0 0 127 0" result="hardAlpha"/>
<feOffset dy="1"/>
<feGaussianBlur stdDeviation="0.5"/>
<feComposite in2="hardAlpha" operator="out"/>
<feColorMatrix type="matrix" values="0 0 0 0 0.162923 0 0 0 0 0.162923 0 0 0 0 0.162923 0 0 0 0.08 0"/>
<feBlend mode="normal" in2="BackgroundImageFix" result="effect1_dropShadow_203_10"/>
<feColorMatrix in="SourceAlpha" type="matrix" values="0 0 0 0 0 0 0 0 0 0 0 0 0 0 0 0 0 0 127 0" result="hardAlpha"/>
<feMorphology radius="1" operator="erode" in="SourceAlpha" result="effect2_dropShadow_203_10"/>
<feOffset dy="3"/>
<feGaussianBlur stdDeviation="2"/>
<feComposite in2="hardAlpha" operator="out"/>
<feColorMatrix type="matrix" values="0 0 0 0 0.164706 0 0 0 0 0.164706 0 0 0 0 0.164706 0 0 0 0.14 0"/>
<feBlend mode="normal" in2="effect1_dropShadow_203_10" result="effect2_dropShadow_203_10"/>
<feBlend mode="normal" in="SourceGraphic" in2="effect2_dropShadow_203_10" result="shape"/>
<feColorMatrix in="SourceAlpha" type="matrix" values="0 0 0 0 0 0 0 0 0 0 0 0 0 0 0 0 0 0 127 0" result="hardAlpha"/>
<feOffset dy="-3"/>
<feGaussianBlur stdDeviation="1.5"/>
<feComposite in2="hardAlpha" operator="arithmetic" k2="-1" k3="1"/>
<feColorMatrix type="matrix" values="0 0 0 0 0 0 0 0 0 0 0 0 0 0 0 0 0 0 0.1 0"/>
<feBlend mode="normal" in2="shape" result="effect3_innerShadow_203_10"/>
<feColorMatrix in="SourceAlpha" type="matrix" values="0 0 0 0 0 0 0 0 0 0 0 0 0 0 0 0 0 0 127 0" result="hardAlpha"/>
<feOffset dy="3"/>
<feGaussianBlur stdDeviation="1.5"/>
<feComposite in2="hardAlpha" operator="arithmetic" k2="-1" k3="1"/>
<feColorMatrix type="matrix" values="0 0 0 0 1 0 0 0 0 1 0 0 0 0 1 0 0 0 0.1 0"/>
<feBlend mode="normal" in2="effect3_innerShadow_203_10" result="effect4_innerShadow_203_10"/>
<feColorMatrix in="SourceAlpha" type="matrix" values="0 0 0 0 0 0 0 0 0 0 0 0 0 0 0 0 0 0 127 0" result="hardAlpha"/>
<feMorphology radius="1" operator="erode" in="SourceAlpha" result="effect5_innerShadow_203_10"/>
<feOffset/>
<feComposite in2="hardAlpha" operator="arithmetic" k2="-1" k3="1"/>
<feColorMatrix type="matrix" values="0 0 0 0 0 0 0 0 0 0 0 0 0 0 0 0 0 0 0.2 0"/>
<feBlend mode="normal" in2="effect4_innerShadow_203_10" result="effect5_innerShadow_203_10"/>
</filter>
<filter id="filter1_d_203_10" x="9" y="5.25" width="36" height="42" filterUnits="userSpaceOnUse" color-interpolation-filters="sRGB">
<feFlood flood-opacity="0" result="BackgroundImageFix"/>
<feColorMatrix in="SourceAlpha" type="matrix" values="0 0 0 0 0 0 0 0 0 0 0 0 0 0 0 0 0 0 127 0" result="hardAlpha"/>
<feMorphology radius="1.5" operator="erode" in="SourceAlpha" result="effect1_dropShadow_203_10"/>
<feOffset dy="2.25"/>
<feGaussianBlur stdDeviation="2.25"/>
<feComposite in2="hardAlpha" operator="out"/>
<feColorMatrix type="matrix" values="0 0 0 0 0.141176 0 0 0 0 0.141176 0 0 0 0 0.141176 0 0 0 0.1 0"/>
<feBlend mode="normal" in2="BackgroundImageFix" result="effect1_dropShadow_203_10"/>
<feBlend mode="normal" in="SourceGraphic" in2="effect1_dropShadow_203_10" result="shape"/>
</filter>
<linearGradient id="paint0_linear_203_10" x1="24" y1="5.96047e-07" x2="26" y2="48" gradientUnits="userSpaceOnUse">
<stop stop-color="white" stop-opacity="0"/>
<stop offset="1" stop-color="white" stop-opacity="0.12"/>
</linearGradient>
<linearGradient id="paint1_linear_203_10" x1="27.1486" y1="11.0198" x2="31.9533" y2="28.9487" gradientUnits="userSpaceOnUse">
<stop stop-color="white" stop-opacity="0.8"/>
<stop offset="1" stop-color="white" stop-opacity="0.5"/>
</linearGradient>
<linearGradient id="paint2_linear_203_10" x1="32.3986" y1="16.2708" x2="37.2033" y2="34.1996" gradientUnits="userSpaceOnUse">
<stop stop-color="white" stop-opacity="0.8"/>
<stop offset="1" stop-color="white" stop-opacity="0.5"/>
</linearGradient>
<linearGradient id="paint3_linear_203_10" x1="27" y1="0" x2="27" y2="48" gradientUnits="userSpaceOnUse">
<stop stop-color="white" stop-opacity="0.12"/>
<stop offset="1" stop-color="white" stop-opacity="0"/>
</linearGradient>
<clipPath id="clip0_203_10">
<rect x="3" width="48" height="48" rx="12" fill="white"/>
</clipPath>
</defs>
</svg>
