<svg xmlns="http://www.w3.org/2000/svg" fill="none" viewBox="0 0 24 24">
  <path stroke="#fff" stroke-linecap="round" stroke-linejoin="round" stroke-width="2" d="m12 22 2.5-2M12 22v-9 9Zm0 0-2.5-2 2.5 2ZM5.0342 9.117a4.0021 4.0021 0 0 0-1.6795 6.8745A4.002 4.002 0 0 0 6.0002 17h1"/>
  <path stroke="#fff" stroke-linecap="round" stroke-linejoin="round" stroke-width="2" d="M15.8302 7.138a5.5003 5.5003 0 0 0-6.3248-4.063 5.5 5.5 0 0 0-4.4712 6.043s.153.882.466 1.382"/>
  <path stroke="#fff" stroke-linecap="round" stroke-linejoin="round" stroke-width="2" d="M17 17a5.0008 5.0008 0 0 0 4.7674-3.5035A4.9999 4.9999 0 0 0 15.83 7.138L14.5 7.5"/>
</svg>
