<svg width="24" height="24" viewBox="0 0 24 24" fill="none" xmlns="http://www.w3.org/2000/svg">
    <path d="M21.9999 5.09334C21.1066 3.26001 18.5332 1.76001 15.5399 2.63334C14.1096 3.0465 12.8616 3.93253 11.9999 5.14667C11.1382 3.93253 9.89027 3.0465 8.45991 2.63334C5.45991 1.77334 2.89324 3.26001 1.99991 5.09334C0.746578 7.66001 1.26658 10.5467 3.54658 13.6733C5.33325 16.12 7.88658 18.6 11.5932 21.48C11.7104 21.5714 11.8547 21.621 12.0032 21.621C12.1518 21.621 12.2961 21.5714 12.4132 21.48C16.1132 18.6067 18.6732 16.1467 20.4599 13.6733C22.7332 10.5467 23.2532 7.66001 21.9999 5.09334V5.09334Z" fill="#F24E1E"/>
</svg>
