<svg xmlns="http://www.w3.org/2000/svg" width="32" height="32"><path d="M17.12 5.107c0 3.857-.014 4.866-.067 4.866-.236.001-1.35.127-1.932.221-4.359.698-8.327 3.022-11.161 6.539a17.904 17.904 0 0 0-3.478 7.134c-.138.586-.211.99-.381 2.106-.036.24-.07 1.483-.084 3.094-.021 2.32-.014 2.678.05 2.586.042-.058.442-.778.891-1.6 1.324-2.426 1.662-2.968 2.464-3.957 2.576-3.177 6.238-5.245 10.326-5.831.812-.117 2.589-.195 3.065-.136l.306.039.014 4.903.014 4.902 7.426-7.426L32 15.12l-7.44-7.44L17.12.24v4.867M24.147 20.2l-5.107 5.107v-6.894l-.493-.061a17.91 17.91 0 0 0-2.538-.164c-3.866-.005-7.401 1.127-10.615 3.4-.745.527-1.466 1.146-2.267 1.947-.857.856-.837.875-.43-.389 1.582-4.911 5.331-8.742 10.18-10.401 1.694-.579 3.378-.85 5.296-.851l.867-.001V4.88l5.107 5.107 5.106 5.106-5.106 5.107" fill-rule="evenodd"/></svg>