<?xml version="1.0" encoding="UTF-8"?>
<svg xmlns="http://www.w3.org/2000/svg" xmlns:xlink="http://www.w3.org/1999/xlink" width="32px" height="32px" viewBox="0 0 32 32" version="1.1">
<g id="surface1">
<path style=" stroke:none;fill-rule:nonzero;fill:rgb(0%,0%,0%);fill-opacity:1;" d="M 15.59375 0 C 6.953125 0.21875 0 7.304688 0 16 C 0 24.832031 7.167969 32 16 32 C 24.832031 32 32 24.832031 32 16 C 32 7.167969 24.832031 0 16 0 C 15.863281 0 15.730469 -0.00390625 15.59375 0 M 15.578125 2.75 C 15.71875 2.746094 15.855469 2.75 16 2.75 C 23.3125 2.75 29.25 8.6875 29.25 16 C 29.25 23.3125 23.3125 29.25 16 29.25 C 8.6875 29.25 2.75 23.3125 2.75 16 C 2.75 8.828125 8.460938 2.976562 15.578125 2.75 "/>
<path style=" stroke:none;fill-rule:nonzero;fill:rgb(0%,0%,0%);fill-opacity:1;" d="M 12.824219 19.371094 C 13.851562 20.8125 16.996094 20.917969 18.078125 20.304688 C 18.472656 20.082031 18.574219 19.433594 18.574219 18.992188 C 18.574219 18.691406 18.492188 18.453125 18.335938 18.28125 C 18.167969 18.109375 17.738281 17.667969 17.246094 17.539062 C 14.734375 16.894531 13 16.085938 12.320312 15.496094 C 11.472656 14.765625 11.335938 14.285156 11.335938 13.007812 C 11.335938 11.730469 11.703125 10.660156 12.53125 9.890625 C 13.363281 9.125 14.566406 8.742188 16.148438 8.742188 C 17.660156 8.742188 19.78125 9.140625 20.820312 10.367188 L 19.09375 12.246094 C 18.117188 11.429688 17.394531 11.355469 16.203125 11.355469 C 15.453125 11.355469 15.058594 11.464844 14.742188 11.679688 C 14.425781 11.886719 14.265625 12.15625 14.265625 12.492188 C 14.265625 12.796875 14.410156 13.046875 14.703125 13.246094 C 14.992188 13.453125 15.753906 13.761719 17.273438 14.175781 C 18.980469 14.640625 20.136719 15.207031 20.746094 15.871094 C 21.347656 16.535156 21.648438 17.421875 21.648438 18.527344 C 21.648438 19.855469 21.179688 20.949219 20.242188 21.8125 C 19.316406 22.675781 18.171875 23.347656 16.53125 23.347656 C 14.417969 23.347656 11.59375 22.597656 10.816406 21.21875 "/>
<path style=" stroke:none;fill-rule:nonzero;fill:rgb(0%,0%,0%);fill-opacity:1;" d="M 15.1875 6.4375 L 15.1875 9.859375 L 16.8125 9.859375 L 16.8125 6.4375 L 15.1875 6.4375 M 15.1875 22.484375 L 15.1875 25.558594 L 16.8125 25.558594 L 16.8125 22.484375 L 15.1875 22.484375 "/>
<path style="fill:none;stroke-width:7.92;stroke-linecap:butt;stroke-linejoin:round;stroke:rgb(0%,0%,0%);stroke-opacity:1;stroke-miterlimit:1.5;" d="M 0 64 L 64 0 " transform="matrix(0.328125,0,0,0.328125,5.5,5.5)"/>
</g>
</svg>
