<?xml version="1.0" encoding="UTF-8"?>
<svg xmlns="http://www.w3.org/2000/svg" xmlns:xlink="http://www.w3.org/1999/xlink" width="32px" height="32px" viewBox="0 0 32 32" version="1.1">
<g id="surface1">
<path style=" stroke:none;fill-rule:nonzero;fill:rgb(0%,0%,0%);fill-opacity:1;" d="M 32 15.105469 L 17.101562 0.207031 L 17.101562 9.96875 C 12.640625 10.203125 8.476562 12.050781 5.292969 15.234375 C 1.878906 18.648438 0 23.1875 0 28.015625 L 0 31.792969 L 1.816406 28.480469 C 4.652344 23.3125 10.078125 20.101562 15.976562 20.101562 C 16.351562 20.101562 16.726562 20.117188 17.101562 20.140625 L 17.101562 30.003906 Z M 15.976562 18.167969 C 10.695312 18.167969 5.75 20.464844 2.355469 24.347656 C 4.019531 17.210938 10.433594 11.878906 18.070312 11.878906 L 19.039062 11.878906 L 19.039062 4.882812 L 29.261719 15.105469 L 19.039062 25.328125 L 19.039062 18.40625 L 18.191406 18.304688 C 17.460938 18.210938 16.714844 18.167969 15.976562 18.167969 Z M 15.976562 18.167969 "/>
</g>
</svg>
