<svg xmlns="http://www.w3.org/2000/svg" width="32" height="32"><path d="M5.093 3.713C2.576 4.095.733 5.706.148 8.037c-.097.386-.117.617-.116 1.296.001.721.02.893.141 1.345.606 2.247 2.446 3.879 4.771 4.229.311.047.912.079 1.483.08 1.659.001 3.315.161 3.887.375.151.057.463.222.693.367l.418.264-.393.252c-.534.343-.748.431-1.28.524-.797.139-1.577.198-3.219.245-2.006.057-2.371.127-3.395.649-3.639 1.853-4.226 6.655-1.134 9.273 1.985 1.682 4.845 1.843 7.036.396.452-.298 1.198-1.031 1.509-1.482.904-1.312 1.22-2.909.867-4.384-.056-.234-.086-.441-.066-.46.131-.12 4.145-2.287 4.199-2.266.037.014 1.66 1.088 3.606 2.385 1.946 1.298 3.709 2.438 3.918 2.533a8.274 8.274 0 0 0 1.707.539c.713.144 2.564.13 3.532-.027a27.161 27.161 0 0 0 2.648-.577c.813-.215.982-.334 1.024-.72.051-.464.316-.296-5.889-3.72-3.115-1.72-5.665-3.138-5.666-3.153-.001-.015 2.474-1.395 5.5-3.067a762.147 762.147 0 0 0 5.727-3.182c.383-.24.449-.726.139-1.023-.168-.161-.596-.292-1.933-.594-1.512-.341-2.135-.418-3.409-.422-.984-.003-1.23.013-1.736.115a7.316 7.316 0 0 0-1.701.541c-.204.092-1.949 1.224-3.877 2.514-1.929 1.29-3.541 2.359-3.584 2.375-.059.023-4.053-2.127-4.205-2.264-.02-.018.01-.225.067-.46.354-1.469.038-3.069-.868-4.383-.307-.445-1.055-1.183-1.493-1.471a5.707 5.707 0 0 0-3.083-.972 9.582 9.582 0 0 0-.88.006m1.444 1.356c2.31.409 3.902 2.46 3.649 4.7a5.444 5.444 0 0 1-.215.957c-.312.908-.393.823 2.125 2.212a121.72 121.72 0 0 1 2.069 1.156c.034.034-1.386 1.001-1.522 1.036-.045.012-.362-.157-.704-.376-.341-.22-.713-.446-.826-.503-.689-.348-2.053-.531-4.446-.596-1.528-.042-1.656-.053-2.096-.183-.818-.243-1.523-.662-2.04-1.212-2.047-2.178-1.36-5.583 1.382-6.849a4.751 4.751 0 0 1 1.18-.36c.333-.046 1.139-.036 1.444.018m-1.684.661c-1.659.35-2.839 1.695-2.84 3.236-.001.895.289 1.564.972 2.242.373.37.553.503.913.676.653.314 1.034.402 1.755.404.739.003 1.11-.084 1.787-.42.584-.29 1.005-.654 1.348-1.167.384-.574.52-1.041.514-1.768-.004-.49-.027-.645-.14-.946C8.767 6.936 7.934 6.17 6.8 5.813c-.475-.149-1.439-.19-1.947-.083m1.474 1.331c.68.181 1.236.623 1.504 1.196a1.79 1.79 0 0 1-.005 1.455c-.484.989-1.775 1.494-2.926 1.145-.647-.196-1.229-.697-1.428-1.228-.495-1.323.584-2.627 2.181-2.638.22-.002.523.03.674.07M28.06 9.119c.683.105 1.455.264 1.424.294-.056.054-10.519 5.821-10.737 5.919-.324.145-3.424 1.869-3.76 2.091-.132.087-1.306.745-2.609 1.461-2.458 1.352-2.564 1.424-2.564 1.75-.001.071.074.359.166.64.218.67.272 1.623.129 2.279-.523 2.391-3.019 3.893-5.442 3.274a4.402 4.402 0 0 1-3.185-3.078c-.155-.542-.166-1.618-.023-2.149.325-1.207 1.202-2.258 2.354-2.822.701-.343.912-.381 2.427-.432 2.955-.099 4.266-.281 4.998-.695.48-.27 2.332-1.488 7.298-4.8 2.588-1.725 4.847-3.207 5.018-3.293.563-.281 1.29-.479 2.073-.564.422-.046 1.773.023 2.433.125m-3.768 10.534 5.205 2.88-.202.06c-.382.112-1.535.291-2.276.352-1.197.099-2.258-.047-3.209-.443-.287-.12-1.38-.82-3.647-2.337-1.78-1.191-3.243-2.186-3.25-2.212-.017-.056 2.018-1.2 2.111-1.188.035.005 2.406 1.304 5.268 2.888m-19.368-.608c-1.016.17-2.081.921-2.538 1.791a2.889 2.889 0 0 0-.367 1.484c-.001.892.343 1.653 1.046 2.311.415.388.861.643 1.468.839.617.199 1.521.214 2.149.034 2.301-.656 3.317-2.93 2.165-4.842A4.08 4.08 0 0 0 8.285 20c-.844-.804-2.111-1.164-3.361-.955m1.403 1.349c.68.181 1.236.623 1.504 1.197a1.8 1.8 0 0 1-.006 1.451c-.486 1.009-1.837 1.517-2.984 1.123-.459-.158-.634-.267-.956-.596-.379-.387-.525-.746-.525-1.291 0-1.089 1.005-1.945 2.293-1.954.22-.001.523.03.674.07" fill-rule="evenodd"/></svg>