<svg xmlns="http://www.w3.org/2000/svg" width="32" height="32"><path d="M14.667.059C9.393.479 4.565 3.613 1.98 8.293 1.081 9.923.453 11.8.152 13.76c-.169 1.104-.173 3.361-.006 4.427.526 3.379 1.846 6.179 4.057 8.606 2.501 2.746 5.761 4.463 9.61 5.061.982.153 3.272.164 4.24.021 3.439-.509 6.274-1.832 8.74-4.078 2.783-2.535 4.505-5.836 5.081-9.744.134-.904.134-3.202 0-4.106-.696-4.72-3.082-8.579-6.914-11.186C21.95.714 18.342-.233 14.667.059m2.708 2.77c2.178.235 4.209.976 6.012 2.194.381.257.765.529.853.602l.16.134-2.058 2.058-2.057 2.058-.243-.163c-.657-.444-1.97-.845-3.029-.925l-.186-.014-.015-1.16-.014-1.16H15.2v2.336l-.36.062c-1.751.301-2.895 1.248-3.322 2.749-.239.841-.236 2.231.006 2.878.212.567 1.012 1.284 1.905 1.705.182.086.331.17.331.187 0 .017-1.8 1.83-4 4.03l-4.001 4-.134-.16c-.335-.401-1.103-1.61-1.421-2.24-.987-1.952-1.431-3.816-1.431-6.012 0-2.107.429-3.947 1.359-5.828C5.148 8.105 6.52 6.491 8.367 5.177a13.424 13.424 0 0 1 5.008-2.163c1.163-.232 2.845-.309 4-.185m9.169 5.158a13.38 13.38 0 0 1 2.627 6.638c.123 1.14.059 2.65-.164 3.85-.922 4.98-4.79 9.108-9.7 10.354-1.846.468-3.858.541-5.68.207a13.484 13.484 0 0 1-4.752-1.866c-.396-.252-1.248-.884-1.248-.926 0-.017.919-.95 2.043-2.074l2.043-2.043.405.218c.68.367 1.665.681 2.695.859l.387.066v2.277h1.6v-2.182l.2-.029c1.354-.194 2.258-.616 3.203-1.495.646-.602 1.014-1.192 1.272-2.038.128-.421.143-.553.143-1.27-.001-.645-.022-.878-.112-1.207-.296-1.078-.872-1.753-1.959-2.298a8.33 8.33 0 0 1-.451-.236c-.026-.024 7.097-7.165 7.147-7.165.016 0 .152.162.301.36m-9.141 3.453c.252.044.58.134.729.2l.271.12-1.069 1.067-1.069 1.066-.439-.152c-1.19-.413-1.533-.694-1.533-1.257 0-.232.031-.344.134-.496.168-.247.547-.473.932-.556.419-.09 1.506-.086 2.044.008m-.328 6.058c.622.171 1.299.686 1.432 1.09.104.314.045.956-.12 1.317-.117.255-.179.323-.399.434-.144.073-.445.17-.669.217-.507.104-1.617.108-2.185.007-.409-.073-1.167-.304-1.321-.403-.063-.04.202-.332 1.306-1.438.992-.993 1.412-1.38 1.475-1.36.049.016.266.077.481.136" fill-rule="evenodd"/></svg>