<?xml version="1.0" encoding="UTF-8"?>
<svg xmlns="http://www.w3.org/2000/svg" xmlns:xlink="http://www.w3.org/1999/xlink" width="32px" height="32px" viewBox="0 0 32 32" version="1.1">
<g id="surface1">
<path style=" stroke:none;fill-rule:nonzero;fill:rgb(0%,0%,0%);fill-opacity:1;" d="M 31.976562 22.640625 C 31.929688 22.460938 31.8125 22.304688 31.652344 22.21875 L 20.390625 15.992188 L 31.652344 9.765625 C 31.972656 9.585938 32.089844 9.179688 31.910156 8.859375 C 31.824219 8.699219 31.671875 8.585938 31.5 8.539062 C 28.945312 7.867188 25.453125 6.941406 22.511719 8.621094 C 20.644531 9.875 17.90625 11.707031 15.511719 13.300781 L 11.304688 10.972656 C 11.472656 10.441406 11.558594 9.878906 11.558594 9.328125 C 11.558594 6.207031 8.964844 3.675781 5.78125 3.675781 C 2.59375 3.675781 0 6.199219 0 9.3125 C 0 12.425781 2.59375 14.972656 5.78125 14.972656 L 5.792969 14.972656 C 7.378906 14.945312 9.914062 15.082031 10.566406 15.453125 C 10.691406 15.527344 10.992188 15.714844 11.425781 15.992188 C 11 16.265625 10.699219 16.460938 10.566406 16.535156 C 9.917969 16.898438 7.394531 17.039062 5.785156 17.011719 C 2.59375 17.011719 0 19.554688 0 22.667969 C 0 25.78125 2.59375 28.324219 5.78125 28.324219 C 8.964844 28.324219 11.558594 25.785156 11.558594 22.667969 C 11.558594 22.105469 11.472656 21.554688 11.304688 21.019531 L 15.519531 18.691406 C 18.824219 20.894531 22.519531 23.371094 22.566406 23.398438 C 23.765625 24.085938 25.070312 24.324219 26.371094 24.324219 C 28.199219 24.324219 30.019531 23.847656 31.503906 23.453125 C 31.859375 23.359375 32.070312 22.992188 31.976562 22.640625 Z M 11.21875 14.300781 C 10.179688 13.707031 7.371094 13.640625 6.1875 13.640625 C 6.007812 13.640625 5.867188 13.640625 5.773438 13.640625 C 3.328125 13.640625 1.332031 11.699219 1.332031 9.320312 C 1.332031 6.941406 3.328125 5 5.78125 5 C 8.234375 5 10.226562 6.941406 10.226562 9.328125 C 10.226562 9.90625 10.105469 10.480469 9.871094 11.011719 C 9.734375 11.328125 9.859375 11.699219 10.160156 11.867188 L 14.226562 14.113281 C 13.644531 14.5 13.097656 14.859375 12.605469 15.179688 C 11.851562 14.695312 11.414062 14.40625 11.21875 14.300781 Z M 15.1875 17.28125 C 15.117188 17.320312 15.066406 17.367188 15.019531 17.421875 L 10.152344 20.105469 C 9.851562 20.28125 9.726562 20.644531 9.867188 20.960938 C 10.097656 21.492188 10.21875 22.066406 10.21875 22.644531 C 10.21875 25.03125 8.226562 26.972656 5.773438 26.972656 C 3.320312 26.972656 1.332031 25.03125 1.332031 22.644531 C 1.332031 20.261719 3.328125 18.320312 5.765625 18.320312 C 6.464844 18.328125 10.019531 18.347656 11.21875 17.667969 C 12.324219 17.035156 22.820312 9.992188 23.21875 9.71875 C 25.046875 8.679688 27.164062 8.859375 29.523438 9.394531 L 18.859375 15.292969 C 18.785156 15.308594 18.71875 15.328125 18.652344 15.359375 Z M 23.257812 22.238281 C 23.257812 22.238281 19.980469 20.03125 16.832031 17.941406 L 19.019531 16.734375 L 29.523438 22.546875 C 27.164062 23.078125 25.050781 23.257812 23.257812 22.238281 Z M 23.257812 22.238281 "/>
<path style=" stroke:none;fill-rule:nonzero;fill:rgb(0%,0%,0%);fill-opacity:1;" d="M 5.667969 5.640625 C 3.644531 5.640625 2 7.132812 2 8.972656 C 2 10.8125 3.644531 12.308594 5.667969 12.308594 C 7.6875 12.308594 9.332031 10.8125 9.332031 8.972656 C 9.332031 7.132812 7.6875 5.640625 5.667969 5.640625 Z M 5.667969 10.972656 C 4.378906 10.972656 3.332031 10.074219 3.332031 8.972656 C 3.332031 7.875 4.378906 6.972656 5.667969 6.972656 C 6.953125 6.972656 8 7.875 8 8.972656 C 8 10.074219 6.953125 10.972656 5.667969 10.972656 Z M 5.667969 10.972656 "/>
<path style=" stroke:none;fill-rule:nonzero;fill:rgb(0%,0%,0%);fill-opacity:1;" d="M 5.667969 18.972656 C 3.644531 18.972656 2 20.464844 2 22.304688 C 2 24.144531 3.644531 25.640625 5.667969 25.640625 C 7.6875 25.640625 9.332031 24.144531 9.332031 22.304688 C 9.332031 20.464844 7.6875 18.972656 5.667969 18.972656 Z M 5.667969 24.304688 C 4.378906 24.304688 3.332031 23.40625 3.332031 22.304688 C 3.332031 21.207031 4.378906 20.304688 5.667969 20.304688 C 6.953125 20.304688 8 21.207031 8 22.304688 C 8 23.40625 6.953125 24.304688 5.667969 24.304688 Z M 5.667969 24.304688 "/>
</g>
</svg>
