<svg xmlns="http://www.w3.org/2000/svg" width="32" height="32"><path d="M0 16v16h32V0H0v16M4 2.667V4H1.333V1.333H4v1.334m26.667 0V4H28V1.333h2.667v1.334m-4 6v6H5.333v-12h21.334v6M4 8v1.333H1.333V6.667H4V8m26.667 0v1.333H28V6.667h2.667V8M4 13.333v1.334H1.333V12H4v1.333m26.667 0v1.334H28V12h2.667v1.333M4 18.667V20H1.333v-2.667H4v1.334m22.667 4.666v6H5.333v-12h21.334v6m4-4.666V20H28v-2.667h2.667v1.334M4 24v1.333H1.333v-2.666H4V24m26.667 0v1.333H28v-2.666h2.667V24M4 29.333v1.334H1.333V28H4v1.333m26.667 0v1.334H28V28h2.667v1.333" fill-rule="evenodd"/></svg>