<?xml version="1.0" encoding="UTF-8"?>
<svg xmlns="http://www.w3.org/2000/svg" xmlns:xlink="http://www.w3.org/1999/xlink" width="32px" height="32px" viewBox="0 0 32 32" version="1.1">
<g id="surface1">
<path style=" stroke:none;fill-rule:nonzero;fill:rgb(0%,0%,0%);fill-opacity:1;" d="M 0 0 L 0 32 L 32 32 L 32 0 Z M 3.992188 30.667969 L 1.332031 30.667969 L 1.332031 28 L 4 28 L 4 30.667969 Z M 3.992188 25.335938 L 1.332031 25.335938 L 1.332031 22.667969 L 4 22.667969 L 4 25.335938 Z M 3.992188 20 L 1.332031 20 L 1.332031 17.332031 L 4 17.332031 L 4 20 Z M 3.992188 14.667969 L 1.332031 14.667969 L 1.332031 12 L 4 12 L 4 14.667969 Z M 3.992188 9.332031 L 1.332031 9.332031 L 1.332031 6.664062 L 4 6.664062 L 4 9.332031 Z M 3.992188 3.992188 L 1.332031 3.992188 L 1.332031 1.332031 L 4 1.332031 L 4 3.992188 Z M 26.667969 29.335938 L 5.332031 29.335938 L 5.332031 17.332031 L 26.667969 17.332031 Z M 26.667969 14.667969 L 5.332031 14.667969 L 5.332031 2.664062 L 26.667969 2.664062 Z M 30.667969 30.667969 L 28 30.667969 L 28 28 L 30.667969 28 Z M 30.667969 25.335938 L 28 25.335938 L 28 22.667969 L 30.667969 22.667969 Z M 30.667969 20 L 28 20 L 28 17.332031 L 30.667969 17.332031 Z M 30.667969 14.667969 L 28 14.667969 L 28 12 L 30.667969 12 Z M 30.667969 9.332031 L 28 9.332031 L 28 6.664062 L 30.667969 6.664062 Z M 30.667969 3.992188 L 28 3.992188 L 28 1.332031 L 30.667969 1.332031 Z M 30.667969 3.992188 "/>
</g>
</svg>
