<svg xmlns="http://www.w3.org/2000/svg" fill="none" viewBox="0 0 21 21">
  <path fill="#A7A7A7" d="m18.7031 6.1995-2.625 1.5114V4.5938c0-.724-.5885-1.3125-1.3125-1.3125H2.625c-.724 0-1.3125.5885-1.3125 1.3125v11.8124c0 .724.5886 1.3126 1.3125 1.3126h12.1406c.724 0 1.3125-.5886 1.3125-1.3126v-3.1171l2.625 1.5114c.4368.2522.9844-.0636.9844-.566v-7.467c0-.5044-.5476-.8202-.9844-.568ZM6.7266 7.2188a.1645.1645 0 0 1-.1641.164H4.2656a.1645.1645 0 0 1-.164-.164v-.9844c0-.0903.0738-.164.164-.164h2.2969c.0902 0 .164.0737.164.164v.9844Zm11.4843 5.5986-2.1328-1.2264v-2.18l2.1328-1.2284v4.6348Z"></path>
</svg>
