<?xml version="1.0" standalone="no"?>
<!DOCTYPE svg PUBLIC "-//W3C//DTD SVG 20010904//EN"
 "http://www.w3.org/TR/2001/REC-SVG-20010904/DTD/svg10.dtd">
<svg version="1.0" xmlns="http://www.w3.org/2000/svg" width="162.000000pt" height="162.000000pt" viewBox="0 0 162.000000 162.000000" preserveAspectRatio="xMidYMid meet">
<metadata>
Created by potrace 1.14, written by Peter Selinger 2001-2017
</metadata>
<g transform="translate(0.000000,162.000000) scale(0.100000,-0.100000)" fill="#000000" stroke="none">
<path d="M1045 1393 c-40 -5 -355 -64 -371 -70 -7 -2 -15 5 -19 16 -16 50
-172 -15 -159 -66 4 -16 -27 -42 -162 -133 -92 -63 -185 -132 -206 -154 -58
-60 -54 -98 30 -276 194 -414 217 -457 260 -487 24 -16 50 -18 267 -17 148 1
255 5 280 12 55 16 148 88 322 250 29 26 55 42 71 42 44 0 106 45 134 97 38
71 50 116 52 198 5 132 -40 254 -119 327 -30 28 -118 64 -133 54 -15 -9 -29 9
-69 89 -50 101 -90 127 -178 118z"></path>
</g>
</svg>
